<svg xmlns="http://www.w3.org/2000/svg" fill="none" viewBox="0 0 118 48">
  <path fill="#363535" d="M52.773 48V0L17.563 21.41h-5.326v5.183h5.326L52.773 48ZM59.18 6.703h-2.63V5.46h6.59v1.244h-2.629v9.276H59.18V6.703ZM65.33 5.455h5.44V6.7h-4.113v3.339h4.112v1.244h-4.112v3.448h4.112v1.245h-5.44V5.455ZM81.262 7.614a4.04 4.04 0 0 0-2.713-1.081 4.173 4.173 0 0 0 0 8.345 3.944 3.944 0 0 0 2.812-1.138l.846.956a5.619 5.619 0 0 1-3.654 1.412 5.43 5.43 0 0 1-5.635-5.429 5.433 5.433 0 0 1 5.635-5.429 5.558 5.558 0 0 1 3.616 1.343l-.907 1.02ZM84.4 5.455h1.335v9.275h3.695v1.245h-5.035V5.455h.004ZM98.713 13.528H93.81l-.956 2.45h-1.453l4.28-10.523h1.164l4.279 10.524h-1.453l-.96-2.451Zm-2.451-6.32-1.992 5.155h3.984l-1.992-5.155ZM66.407 18.76h1.328v10.5h-1.328v-7.777h-.02L62.14 29.37l-4.241-7.887h-.027v7.777h-1.328v-10.5h1.328l4.268 7.928 4.268-7.929ZM69.93 18.76h1.328v6.3c0 1.715.953 3.123 2.793 3.123 1.84 0 2.791-1.408 2.791-3.123v-6.3h1.328v6.687c0 2.277-1.714 3.98-4.146 3.98-2.375 0-4.09-1.715-4.09-3.98V18.76h-.003ZM81.656 26.26c.179 1.243.9 2.002 2.019 2.002 1.49 0 1.897-.982 1.897-1.7 0-.789-.497-1.285-1.518-1.672l-1.354-.497c-1.673-.623-2.447-1.601-2.447-2.872 0-1.7 1.354-2.929 3.369-2.929 1.896 0 3.258 1.01 3.414 3.107h-1.301c-.11-1.138-.69-1.95-2.17-1.95-1.138 0-1.977.733-1.977 1.658 0 .816.68 1.34 1.632 1.715l1.339.523c1.563.607 2.333 1.518 2.333 2.876 0 1.81-1.518 2.902-3.232 2.902-1.715 0-3.096-1.036-3.248-3.164h1.244ZM89.248 18.76h1.327v10.5h-1.327v-10.5ZM100.996 20.914a4.048 4.048 0 0 0-2.709-1.078 4.173 4.173 0 1 0 0 8.346 3.942 3.942 0 0 0 2.804-1.138l.842.953a5.603 5.603 0 0 1-3.646 1.407 5.421 5.421 0 1 1 0-10.834c1.323 0 2.602.475 3.604 1.339l-.895 1.005ZM63.835 40.102h-4.89l-.952 2.447h-1.45l4.268-10.5h1.161l4.268 10.5h-1.45l-.955-2.447Zm-2.443-6.313-1.988 5.152h3.98l-1.992-5.152ZM72.59 36.76h5.31c0 3.77-2.598 5.956-5.538 5.956a5.417 5.417 0 1 1 3.702-9.412l-.842.994a4.313 4.313 0 0 0-2.86-1.172 4.172 4.172 0 1 0 4.09 4.878h-3.859V36.76h-.004ZM80.078 32.048h5.429v1.244h-4.105v3.331h4.105v1.244h-4.105v3.441h4.105v1.245h-5.429V32.047ZM94.615 32.048h1.328v10.5h-1.244l-5.638-8.121h-.026v8.122h-1.328v-10.5h1.244l5.638 8.121h.026v-8.122ZM106.413 34.203a4.026 4.026 0 0 0-2.708-1.078 4.174 4.174 0 0 0 0 8.346 3.94 3.94 0 0 0 2.803-1.119l.842.953a5.6 5.6 0 0 1-3.645 1.407 5.422 5.422 0 1 1 0-10.835c1.323.001 2.601.476 3.604 1.34l-.896.986ZM116.083 32.215h1.548l-3.551 6.313V42.7h-1.328v-4.172l-3.55-6.313h1.57l2.656 4.932 2.655-4.932ZM5.88 33.383H4.552v-2.075A5.152 5.152 0 0 1 0 26.198c0-2.754 1.68-5.026 4.552-6.278v-2.276c0-1.703.865-2.986 2.003-2.986 1.138 0 2.018 1.275 2.018 2.997a3.008 3.008 0 0 1-2.15 3.005h-.038a9.74 9.74 0 0 0-.501.155v2.747a3.532 3.532 0 0 1 3.509 3.528 4.256 4.256 0 0 1-3.51 4.173v2.12H5.88Zm-1.328-12.01c-2.048 1.07-3.236 2.788-3.236 4.822a3.839 3.839 0 0 0 3.236 3.774v-4.457a1.627 1.627 0 0 0-.345 1.005H2.91a2.963 2.963 0 0 1 1.657-2.655l-.015-2.49Zm1.313 3.505v5.053a2.936 2.936 0 0 0 2.196-2.837 2.22 2.22 0 0 0-2.181-2.216h-.015Zm0-7.208v1.791l.155-.045h.027a1.708 1.708 0 0 0 1.199-1.738c0-1.036-.452-1.696-.687-1.696-.235 0-.679.634-.679 1.67l-.015.018Z"/>
</svg>
