<svg xmlns="http://www.w3.org/2000/svg" fill="none" viewBox="0 0 16 14">
  <path fill="#FFFCF9" d="M8.439 9.756h.244v.049h.293v.049h.146v.048h.146v.05h.098V10h.097v.049h.05V5.17A.58.58 0 0 1 10 4.585l4.83-1.073a.59.59 0 0 1 .487.146.513.513 0 0 1 .244.44v6.731a1.945 1.945 0 0 1-.634 1.463 2.12 2.12 0 0 1-3.025 0 2.103 2.103 0 0 1-.585-1.463 2.326 2.326 0 0 1 .585-1.512 2.14 2.14 0 0 1 1.513-.634h.292v.048h.244v.05h.147v.048h.146v.049h.098v.049h.097v.048h.049V7.463a.626.626 0 0 0-.196-.487.677.677 0 0 0-.537-.098l-2.731.585a.585.585 0 0 0-.44.586v3.853a1.947 1.947 0 0 1-.633 1.464v.049a2.246 2.246 0 0 1-3.025 0 2.12 2.12 0 0 1 0-3.025 2.139 2.139 0 0 1 1.512-.634h.001Zm6.049 1.073v-.293h-.049V10.39h-.049v-.098h-.048v-.098h-.05v-.049h-.048v-.048h-.049v-.05a1.108 1.108 0 0 0-.78-.292.992.992 0 0 0-.732.293c-.21.207-.332.486-.342.78a1.182 1.182 0 0 0 1.074 1.074c.294-.01.573-.132.78-.342a.99.99 0 0 0 .293-.732v.001Zm0-5.17v-.244a.626.626 0 0 0-.196-.488.677.677 0 0 0-.537-.098l-3.17.683v.244a.627.627 0 0 0 .195.488.6.6 0 0 0 .488.097l3.22-.682ZM9.22 11.122a1.187 1.187 0 0 0-1.562 0c-.195.212-.3.492-.292.78a.993.993 0 0 0 .293.732 1.063 1.063 0 0 0 1.56 0 .992.992 0 0 0 .293-.732v-.244h-.049V11.511a.046.046 0 0 1-.034-.013.049.049 0 0 1-.014-.035v-.097h-.05v-.05h-.048v-.097h-.049v-.048H9.22v-.05.001ZM.439 0H15.17a.42.42 0 0 1 .39.39v.732a.42.42 0 0 1-.39.39H.439A.43.43 0 0 1 0 1.122V.39A.43.43 0 0 1 .439 0Z"/>
  <path fill="#FFFCF9" fill-rule="evenodd" d="M.439 3.902h5.463a.385.385 0 0 1 .39.39v.732a.385.385 0 0 1-.39.39H.44A.43.43 0 0 1 0 5.025v-.731a.43.43 0 0 1 .439-.39ZM.439 7.854h5.463a.36.36 0 0 1 .39.39v.683a.36.36 0 0 1-.39.39H.44A.398.398 0 0 1 0 8.927v-.683a.398.398 0 0 1 .439-.39Z" clip-rule="evenodd"/>
  <path fill="#FFFCF9" d="M.439 11.756h3.073a.419.419 0 0 1 .39.39v.732a.42.42 0 0 1-.39.39H.44a.43.43 0 0 1-.439-.39v-.732a.43.43 0 0 1 .439-.39Z"/>
  <circle cx="8.5" cy="11.5" r="1.5" fill="#FFFCF9"/>
  <circle cx="13.5" cy="10.5" r="1.5" fill="#FFFCF9"/>
  <path fill="#FFFCF9" d="m9.952 5.574 4.872-1.123.264 1.144-4.872 1.123z"/>
</svg>
