<svg xmlns="http://www.w3.org/2000/svg" fill="none" viewBox="0 0 13 12">
  <path fill="url(#a)" d="m4.667 7.333.493.082a.5.5 0 0 0-.493-.582v.5Zm7.333 0v.5a.5.5 0 0 0 .5-.5H12ZM10.667.167H3.093v1h7.574v-1ZM2.293 7.833h2.374v-1H2.293v1Zm1.88-.582-.537 3.224.987.164.537-3.224-.987-.164Zm.614 4.582h.142v-1h-.142v1ZM7.01 10.72l1.677-2.515-.832-.555-1.677 2.515.832.555Zm2.37-2.887H12v-1H9.38v1Zm3.12-.5V2h-1v5.333h1ZM1.295 1.64l-.8 4 .98.197.8-4-.98-.196V1.64Zm7.392 6.565a.831.831 0 0 1 .693-.371v-1c-.613 0-1.185.306-1.525.816l.832.555Zm-5.051 2.27a1.17 1.17 0 0 0 1.15 1.358l.001-1a.169.169 0 0 1-.127-.059.167.167 0 0 1-.037-.135l-.987-.164ZM2.293 6.834a.833.833 0 0 1-.817-.997l-.98-.196a1.836 1.836 0 0 0 1.013 2.016c.245.116.513.176.784.176v-1 .001Zm.8-6.667A1.834 1.834 0 0 0 1.295 1.64l.98.196a.833.833 0 0 1 .818-.67v-1ZM4.93 11.833a2.5 2.5 0 0 0 2.08-1.112l-.831-.556a1.501 1.501 0 0 1-1.249.668v1Zm5.738-10.666c.46 0 .833.373.833.833h1A1.833 1.833 0 0 0 10.667.167v1Z"/>
  <path stroke="url(#b)" stroke-width="1.5" d="M9.334 7.333V.667"/>
  <defs>
    <linearGradient id="a" x1="7.188" x2=".444" y1="4.943" y2="8.019" gradientUnits="userSpaceOnUse">
      <stop stop-color="#F0F8F5"/>
      <stop offset="1" stop-color="#fff"/>
    </linearGradient>
    <linearGradient id="b" x1="8.892" x2="8.219" y1="3.396" y2="3.44" gradientUnits="userSpaceOnUse">
      <stop stop-color="#F0F8F5"/>
      <stop offset="1" stop-color="#fff"/>
    </linearGradient>
  </defs>
</svg>
