<svg xmlns="http://www.w3.org/2000/svg" fill="none" viewBox="0 0 20 16">
  <g fill="#363535" clip-path="url(#a)">
    <path fill-rule="evenodd" d="M1.307 4.22h3.301a.798.798 0 0 0 .62-.248l5.05-3.745a1.046 1.046 0 0 1 1.12-.118 1.09 1.09 0 0 1 .624.934v13.89a1.096 1.096 0 0 1-.623.935 1.038 1.038 0 0 1-1.121-.063l-5.05-3.8a.8.8 0 0 0-.622-.25H1.307A1.302 1.302 0 0 1 0 10.51V5.527a1.316 1.316 0 0 1 1.307-1.308Zm3.301 1.307H1.364v4.93h3.244c.256-.02.513.023.748.125.251.076.483.203.682.373l4.613 3.417V1.602l-4.608 3.49c-.21.14-.44.244-.682.312-.236.1-.493.142-.748.123h-.005Z" clip-rule="evenodd"/>
    <path d="M15.261 4.717a4.826 4.826 0 0 1 1.364 3.301 4.674 4.674 0 0 1-1.364 3.24c-.561.498-1.682-.187-.934-.935a3.483 3.483 0 0 0 .934-2.305 3.517 3.517 0 0 0-.939-2.366c-.623-.623.062-1.68.935-.935h.004Z"/>
    <path d="M17.505 2.537a7.711 7.711 0 0 1 2.241 5.481 7.94 7.94 0 0 1-2.241 5.484.706.706 0 0 1-.998-.998 6.246 6.246 0 0 0 0-9.033c-.748-.809.123-1.743.996-.934h.002ZM1 5h5l5-4v14l-5-4H1V5Z"/>
  </g>
  <defs>
    <clipPath id="a">
      <path fill="#fff" d="M0 0h19.744v16H0z"/>
    </clipPath>
  </defs>
</svg>
