<svg xmlns="http://www.w3.org/2000/svg" fill="none" viewBox="0 0 13 12">
  <path fill="url(#a)" d="m8 4.667-.494-.082A.5.5 0 0 0 8 5.167v-.5Zm-7.333 0v-.5a.5.5 0 0 0-.5.5h.5ZM2 11.833h7.573v-1H2v1Zm8.373-7.666H8v1h2.373v-1Zm-1.88.582.537-3.224-.986-.164-.538 3.224.987.164ZM7.88.167h-.143v1h.142v-1ZM5.657 1.28 3.98 3.795l.832.555 1.676-2.515-.832-.555Zm-2.37 2.887H.667v1h2.62v-1Zm-3.12.5V10h1V4.667h-1ZM11.37 10.36l.8-4-.98-.197-.8 4 .98.196v.001ZM3.98 3.795a.831.831 0 0 1-.693.371v1c.613 0 1.185-.306 1.525-.816l-.832-.555Zm5.05-2.27a1.17 1.17 0 0 0-.66-1.25 1.167 1.167 0 0 0-.49-.108v1a.17.17 0 0 1 .127.059.167.167 0 0 1 .037.135l.986.164Zm1.343 3.641c.527 0 .92.481.818.997l.98.196a1.837 1.837 0 0 0-1.014-2.016 1.833 1.833 0 0 0-.784-.176v1-.001Zm-.8 6.667a1.834 1.834 0 0 0 1.798-1.474l-.98-.196a.833.833 0 0 1-.818.67v1ZM7.737.167a2.5 2.5 0 0 0-2.08 1.112l.832.556a1.502 1.502 0 0 1 1.248-.668v-1ZM2 10.833A.834.834 0 0 1 1.167 10h-1A1.833 1.833 0 0 0 2 11.833v-1Z"/>
  <path stroke="url(#b)" stroke-width="1.5" d="M3.333 4.667v6.666"/>
  <defs>
    <linearGradient id="a" x1="5.479" x2="12.223" y1="7.057" y2="3.981" gradientUnits="userSpaceOnUse">
      <stop stop-color="#F0F8F5"/>
      <stop offset="1" stop-color="#fff"/>
    </linearGradient>
    <linearGradient id="b" x1="3.774" x2="4.448" y1="8.604" y2="8.56" gradientUnits="userSpaceOnUse">
      <stop stop-color="#F0F8F5"/>
      <stop offset="1" stop-color="#fff"/>
    </linearGradient>
  </defs>
</svg>
