<svg xmlns="http://www.w3.org/2000/svg" fill="none" viewBox="0 0 15 12">
  <path fill="#F0F5F9" d="M.173 3.78V9.5c0 .53.213 1.04.592 1.414a2.03 2.03 0 0 0 1.428.586h10.102c.536 0 1.05-.21 1.428-.586a1.99 1.99 0 0 0 .592-1.414V3.78L8.303 7.442a2.036 2.036 0 0 1-2.118 0L.173 3.78Z"/>
  <path fill="#F0F5F9" d="M14.315 2.605V2.5c0-.53-.213-1.04-.591-1.414A2.03 2.03 0 0 0 12.293.5h-10.1c-.537 0-1.05.21-1.43.586A1.99 1.99 0 0 0 .174 2.5v.105l6.542 3.986a1.018 1.018 0 0 0 1.058 0l6.542-3.986Z"/>
</svg>
