<svg xmlns="http://www.w3.org/2000/svg" fill="none" viewBox="0 0 13 14">
  <path fill="#FFFCF9" d="M6.305.134c-.652 0-1.181.56-1.181 1.25v10.5c0 .69.529 1.25 1.18 1.25h.473c.651 0 1.18-.56 1.18-1.25v-10.5c0-.69-.529-1.25-1.18-1.25h-.472ZM.874 4.384c0-.69.529-1.25 1.18-1.25h.473c.652 0 1.18.56 1.18 1.25v7.5c0 .69-.529 1.25-1.18 1.25h-.472c-.314 0-.614-.132-.835-.366a1.288 1.288 0 0 1-.346-.884v-7.5ZM9.185 7.583c0-.69.529-1.25 1.18-1.25h.473c.652 0 1.18.56 1.18 1.25v4.5c0 .69-.529 1.25-1.18 1.25h-.472c-.313 0-.614-.131-.835-.366a1.288 1.288 0 0 1-.346-.884v-4.5Z"/>
</svg>
