<svg xmlns="http://www.w3.org/2000/svg" fill="none" viewBox="0 0 59 58">
  <g clip-path="url(#a)">
    <path fill="url(#b)" fill-rule="evenodd" d="M29.67.134a28.935 28.935 0 0 1 16.073 4.849 28.875 28.875 0 0 1 10.663 12.953 28.829 28.829 0 0 1 1.654 16.686 28.853 28.853 0 0 1-7.912 14.79 28.919 28.919 0 0 1-14.81 7.901 28.943 28.943 0 0 1-16.71-1.652 28.897 28.897 0 0 1-12.97-10.648A28.837 28.837 0 0 1 .802 28.962 28.81 28.81 0 0 1 9.258 8.578 28.89 28.89 0 0 1 29.67.134Zm-2.671 18.271 11.71 8.444a2.585 2.585 0 0 1 1.057 2.113 2.614 2.614 0 0 1-1.057 2.19L27 39.598a2.804 2.804 0 0 1-2.763.243 2.63 2.63 0 0 1-1.398-2.365v-16.96a2.623 2.623 0 0 1 1.383-2.354 2.804 2.804 0 0 1 2.763.243h.015Z" clip-rule="evenodd"/>
  </g>
  <defs>
    <radialGradient id="b" cx="0" cy="0" r="1" gradientTransform="rotate(-3.468 515.063 45.381) scale(35.2203 94.1935)" gradientUnits="userSpaceOnUse">
      <stop stop-color="#363535"/>
      <stop offset="1" stop-color="#555"/>
    </radialGradient>
    <clipPath id="a">
      <path fill="#fff" d="M.802.134h57.732v57.732H.802z"/>
    </clipPath>
  </defs>
</svg>
