<svg xmlns="http://www.w3.org/2000/svg" fill="none" viewBox="0 0 16 16">
  <path fill="#FFFCF9" fill-rule="evenodd" d="M.65 2.81h3.836c.108 0 .161 0 .217.109l1.412 1.998a.351.351 0 0 1 0 .325l-.432.647a.395.395 0 0 1-.217.109.408.408 0 0 1-.27-.109L4.012 4.162c-.055-.056-.055-.109-.108-.109H.649a.614.614 0 0 1-.606-.844.625.625 0 0 1 .606-.396V2.81Zm0 10.43a.649.649 0 1 1 0-1.298h3.242c.053 0 .053 0 .108-.053l6.269-8.97c.053-.108.108-.108.215-.108H12.7c.053 0 .106-.056.161-.109a.197.197 0 0 0-.055-.162l-1.404-1.46a.621.621 0 0 1 0-.918.734.734 0 0 1 .919 0l3.404 3.404c.053.108.109.217.053.325a.298.298 0 0 1-.27.162h-4.43a.114.114 0 0 0-.108.109l-6.268 8.97a.285.285 0 0 1-.217.108H.649Zm8.212-2.108a.469.469 0 0 1 0-.379l.434-.592a.213.213 0 0 1 .215-.102c.109 0 .217 0 .27.108l1.184 1.73c0 .053.053.053.108.053h4.436a.299.299 0 0 1 .27.162.333.333 0 0 1-.053.314l-3.404 3.408a.651.651 0 0 1-.92-.92l1.405-1.404a.198.198 0 0 0 .055-.163c-.055-.054-.108-.107-.161-.107h-2.217a.283.283 0 0 1-.215-.108l-1.407-2Z" clip-rule="evenodd"/>
</svg>
