<svg xmlns="http://www.w3.org/2000/svg" fill="none" viewBox="0 0 14 14">
  <path fill="#363535" d="M11.7 2.273A6.544 6.544 0 0 0 7.027.333C3.387.333.42 3.3.42 6.94c0 1.167.307 2.3.88 3.3l-.933 3.427 3.5-.92a6.608 6.608 0 0 0 3.16.806c3.64 0 6.606-2.966 6.606-6.606A6.565 6.565 0 0 0 11.7 2.273Zm-4.673 10.16a5.508 5.508 0 0 1-2.8-.766l-.2-.12-2.08.546.553-2.026-.133-.207a5.51 5.51 0 0 1-.84-2.92A5.503 5.503 0 0 1 7.02 1.447c1.467 0 2.847.573 3.88 1.613a5.455 5.455 0 0 1 1.607 3.887c.013 3.026-2.454 5.486-5.48 5.486Zm3.013-4.106c-.167-.08-.98-.48-1.127-.54-.153-.054-.26-.08-.373.08-.113.166-.427.54-.52.646-.093.114-.193.127-.36.04-.167-.08-.7-.26-1.327-.82-.493-.44-.82-.98-.92-1.146-.093-.167-.013-.254.074-.34.073-.074.166-.194.246-.287.08-.093.114-.167.167-.273.053-.114.027-.207-.013-.287-.04-.08-.374-.893-.507-1.227-.133-.32-.273-.28-.373-.286h-.32a.599.599 0 0 0-.44.206c-.147.167-.574.567-.574 1.38 0 .814.594 1.6.674 1.707.08.113 1.166 1.78 2.82 2.493.393.174.7.274.94.347.393.127.753.107 1.04.067.32-.047.98-.4 1.113-.787.14-.387.14-.713.093-.787-.046-.073-.146-.106-.313-.186Z"/>
</svg>
