<svg xmlns="http://www.w3.org/2000/svg" fill="none" viewBox="0 0 48 6">
  <g clip-path="url(#a)">
    <path fill="#FFFCF9" d="M4.884.014c.914.022 1.919.47 2.793 1.21.693.587 1.338 1.234 1.995 1.864 2.043 1.96 3.38 1.973 5.442.05.734-.684 1.43-1.419 2.217-2.033 1.863-1.457 3.78-1.474 5.665-.053.74.557 1.403 1.228 2.07 1.882 2.202 2.167 3.582 2.174 5.799.022.669-.65 1.332-1.321 2.07-1.88 1.87-1.413 3.727-1.418 5.612-.016.705.525 1.349 1.148 1.977 1.774 2.303 2.295 3.633 2.317 5.944.067.372-.363.724-.919 1.325-.387.381.336.238.787-.427 1.413-.34.32-.686.638-1.054.92-1.978 1.513-3.72 1.49-5.667-.083-.47-.38-.898-.815-1.345-1.225-.429-.395-.834-.822-1.29-1.182-1.585-1.255-2.937-1.265-4.519.001-.634.507-1.196 1.112-1.789 1.675-2.687 2.556-4.628 2.58-7.362.086-.706-.645-1.366-1.354-2.122-1.927-1.38-1.046-2.527-1.052-3.945-.06-.567.396-1.049.922-1.584 1.37-.785.654-1.537 1.37-2.388 1.915-1.204.77-2.526.783-3.732.011-.872-.556-1.637-1.293-2.444-1.957-.627-.515-1.212-1.099-1.878-1.553-1.009-.688-2.099-.7-3.125-.034-.637.413-1.218.927-1.792 1.435-.372.328-.736.563-1.134.127-.367-.403-.161-.772.162-1.116C1.778.822 3.277.006 4.884.014Z"/>
  </g>
  <defs>
    <clipPath id="a">
      <path fill="#fff" d="M0 0h48v6H0z"/>
    </clipPath>
  </defs>
</svg>
