<svg xmlns="http://www.w3.org/2000/svg" fill="none" viewBox="0 0 26 26">
  <path stroke="#FFFCF9" stroke-linecap="round" stroke-linejoin="round" d="M8.5 12.145a.533.533 0 0 1-.146.369.49.49 0 0 1-.354.153.49.49 0 0 1-.354-.153.533.533 0 0 1-.146-.37c0-.137.053-.27.146-.368A.49.49 0 0 1 8 11.623a.49.49 0 0 1 .354.153c.093.098.146.23.146.369Zm0 0H8m5.5 0a.534.534 0 0 1-.146.369.49.49 0 0 1-.354.153.49.49 0 0 1-.354-.153.534.534 0 0 1 0-.738.49.49 0 0 1 .354-.153.49.49 0 0 1 .354.153c.093.098.146.23.146.369Zm0 0H13m5.5 0a.534.534 0 0 1-.146.369.49.49 0 0 1-.354.153.49.49 0 0 1-.354-.153.534.534 0 0 1 0-.738.49.49 0 0 1 .354-.153.49.49 0 0 1 .354.153c.093.098.146.23.146.369Zm0 0H18m7 0c0 6.339-5.373 11.478-12 11.478a12.51 12.51 0 0 1-3.407-.469 7.715 7.715 0 0 1-6.012 1.38 6.348 6.348 0 0 0 1.304-2.817c.12-.636-.177-1.254-.622-1.706C2.24 17.958 1 15.191 1 12.145 1 5.806 6.373.667 13 .667s12 5.14 12 11.478Z"/>
  <ellipse cx="13" cy="12" fill="#FFFCF9" rx="12" ry="11.333"/>
  <circle cx="8" cy="13" r="1" fill="#00C498"/>
  <circle cx="12.666" cy="13" r="1" fill="#00C498"/>
  <circle cx="17.334" cy="13" r="1" fill="#00C498"/>
  <path fill="#FFFCF9" d="M5 20h4.667v3.333l-5.333 1.334L5 20Z"/>
</svg>
